<?xml version="1.0" encoding="UTF-8" standalone="no"?><!DOCTYPE svg PUBLIC "-//W3C//DTD SVG 1.1//EN" "http://www.w3.org/Graphics/SVG/1.1/DTD/svg11.dtd"><svg width="100%" height="100%" viewBox="0 0 1667 2500" version="1.1" xmlns="http://www.w3.org/2000/svg" xmlns:xlink="http://www.w3.org/1999/xlink" xml:space="preserve" xmlns:serif="http://www.serif.com/" style="fill-rule:evenodd;clip-rule:evenodd;stroke-linecap:round;stroke-linejoin:round;stroke-miterlimit:1.5;"><g id="Visual"><rect x="267.301" y="1468.06" width="493.454" height="521.813" style="fill:#8cddff;stroke:#2ec5ff;stroke-width:16.67px;"/><rect x="1040.19" y="1468.06" width="293.611" height="521.813" style="fill:#b1ff8c;"/><rect x="985.391" y="1172.51" width="403.208" height="295.547" style="fill:#8cddff;stroke:#2ec5ff;stroke-width:16.67px;"/><circle cx="597.691" cy="910.674" r="103.975" style="fill:#c6adff;stroke:#a077ff;stroke-width:16.67px;"/><circle cx="1047.25" cy="673.165" r="133.506" style="fill:#c6adff;stroke:#a077ff;stroke-width:16.67px;"/><path d="M597.691,1194.16c0,-23.087 -18.744,-41.831 -41.832,-41.831l-83.663,-0c-23.088,-0 -41.832,18.744 -41.832,41.831l0,232.063c0,23.087 18.744,41.831 41.832,41.831l83.663,0c23.088,0 41.832,-18.744 41.832,-41.831l0,-232.063Z" style="fill:#ffadd7;"/><path d="M1309.98,918.279c-0,-33.939 -27.554,-61.493 -61.493,-61.493l-122.987,0c-33.939,0 -61.493,27.554 -61.493,61.493l0,192.74c0,33.939 27.554,61.493 61.493,61.493l122.987,0c33.939,0 61.493,-27.554 61.493,-61.493l-0,-192.74Z" style="fill:#ffadd7;"/><rect x="0" y="0" width="1666.67" height="2500" style="fill:#8cddff;fill-opacity:0;"/></g></svg>