<?xml version="1.0" encoding="UTF-8" standalone="no"?><!DOCTYPE svg PUBLIC "-//W3C//DTD SVG 1.1//EN" "http://www.w3.org/Graphics/SVG/1.1/DTD/svg11.dtd"><svg width="100%" height="100%" viewBox="0 0 990 202" version="1.1" xmlns="http://www.w3.org/2000/svg" xmlns:xlink="http://www.w3.org/1999/xlink" xml:space="preserve" xmlns:serif="http://www.serif.com/" style="fill-rule:evenodd;clip-rule:evenodd;stroke-linejoin:round;stroke-miterlimit:2;"><g><path d="M191.122,87.933l24.204,-0l-1.933,15.055c7.256,-11.936 15.971,-17.904 26.143,-17.904c2.442,0 4.985,0.649 7.63,1.947l-9.936,24.699c-2.063,-0.742 -3.576,-1.113 -4.539,-1.113c-5.298,0 -10.027,3.069 -14.188,9.206c-4.161,6.138 -7.445,18.531 -9.853,37.181l-5.366,41.606l-27.285,-0l15.123,-110.677Z" style="fill:#ffa832;fill-rule:nonzero;"/><path d="M313.837,85.084c9.834,0 18.768,2.272 26.805,6.816c8.036,4.544 14.292,10.986 18.768,19.328c4.476,8.341 6.714,17.7 6.714,28.076c-0,17.225 -6.137,31.891 -18.412,43.996c-12.275,12.105 -27.466,18.158 -45.573,18.158c-15.734,-0 -28.28,-4.764 -37.639,-14.292c-9.358,-9.529 -14.038,-21.99 -14.038,-37.384c0,-18.582 6.341,-34.011 19.023,-46.285c12.682,-12.275 27.466,-18.413 44.352,-18.413Zm-1.888,25.737c-11.103,-0 -19.617,3.984 -25.541,11.953c-5.925,7.968 -8.887,16.598 -8.887,25.889c0,8.273 2.421,14.936 7.262,19.989c4.841,5.052 11.289,7.578 19.346,7.578c11.443,0 20.16,-3.848 26.152,-11.546c5.992,-7.697 8.987,-16.496 8.987,-26.397c0,-8.138 -2.538,-14.751 -7.616,-19.837c-5.078,-5.086 -11.646,-7.629 -19.703,-7.629Z" style="fill:#ffa832;fill-rule:nonzero;"/><path d="M402.832,46.836l27.002,-0l-5.588,41.097l17.191,-0l-3.255,23.396l-17.117,0l-11.867,87.281l-27.103,-0l11.926,-87.281l-13.326,0l3.153,-23.396l13.369,-0l5.615,-41.097Z" style="fill:#ffa832;fill-rule:nonzero;"/><path d="M509.658,85.084c9.834,0 18.769,2.272 26.805,6.816c8.036,4.544 14.292,10.986 18.768,19.328c4.476,8.341 6.714,17.7 6.714,28.076c0,17.225 -6.137,31.891 -18.412,43.996c-12.275,12.105 -27.466,18.158 -45.573,18.158c-15.734,-0 -28.28,-4.764 -37.638,-14.292c-9.359,-9.529 -14.039,-21.99 -14.039,-37.384c0,-18.582 6.341,-34.011 19.023,-46.285c12.682,-12.275 27.466,-18.413 44.352,-18.413Zm-1.888,25.737c-11.103,-0 -19.617,3.984 -25.541,11.953c-5.924,7.968 -8.887,16.598 -8.887,25.889c0,8.273 2.421,14.936 7.262,19.989c4.841,5.052 11.289,7.578 19.346,7.578c11.443,0 20.16,-3.848 26.152,-11.546c5.992,-7.697 8.988,-16.496 8.988,-26.397c-0,-8.138 -2.539,-14.751 -7.617,-19.837c-5.078,-5.086 -11.645,-7.629 -19.703,-7.629Z" style="fill:#ffa832;fill-rule:nonzero;"/><path d="M606.019,0l130.921,0l-4.567,35.239l-93.397,0l-5.936,41.045l59.714,0l-4.533,34.97l-59.737,-0l-12.059,87.356l-37.492,-0l27.086,-198.61Z" style="fill:#ffa832;fill-rule:nonzero;"/><path d="M797.922,87.933l27.195,-0l-15.43,110.677l-26.888,-0l1.625,-11.888c-5.908,5.488 -11.424,9.316 -16.55,11.484c-5.126,2.168 -10.881,3.252 -17.264,3.252c-14.666,-0 -26.327,-5.391 -34.984,-16.174c-8.657,-10.783 -12.986,-23.329 -12.986,-37.639c-0,-10.918 2.77,-21.311 8.31,-31.178c5.539,-9.868 12.977,-17.565 22.313,-23.092c9.336,-5.527 19.099,-8.291 29.29,-8.291c6.84,0 13.15,1.57 18.929,4.711c5.779,3.14 10.55,7.714 14.311,13.721l2.129,-15.583Zm-40.791,89.314c6.689,0 12.524,-1.489 17.505,-4.468c4.981,-2.978 9.161,-7.649 12.539,-14.013c3.378,-6.364 5.067,-12.863 5.067,-19.497c0,-8.769 -2.542,-15.821 -7.626,-21.157c-5.084,-5.335 -11.789,-8.003 -20.114,-8.003c-9.691,-0 -17.914,3.56 -24.67,10.681c-6.755,7.121 -10.133,16.31 -10.133,27.567c-0,8.681 2.559,15.666 7.677,20.956c5.118,5.29 11.703,7.934 19.755,7.934Z" style="fill:#ffa832;fill-rule:nonzero;"/><path d="M914.737,103.395l-12.949,20.752c-3.332,-4.951 -6.833,-8.596 -10.504,-10.936c-3.671,-2.339 -7.104,-3.509 -10.299,-3.509c-2.447,-0 -4.52,0.678 -6.22,2.034c-1.699,1.357 -2.549,2.883 -2.549,4.578c-0,1.628 0.68,3.255 2.039,4.883c1.292,1.627 5.201,4.781 11.729,9.46c10.403,7.46 17.254,13.852 20.552,19.175c3.297,5.324 4.946,11.105 4.946,17.345c-0,8.205 -3.374,15.97 -10.122,23.295c-6.748,7.324 -16.53,10.986 -29.347,10.986c-7.393,-0 -14.123,-1.492 -20.193,-4.476c-6.07,-2.984 -12.834,-8.443 -20.294,-16.378l16.785,-19.531c7.595,10.037 15.903,15.055 24.922,15.055c3.595,0 6.46,-0.864 8.596,-2.594c2.136,-1.729 3.204,-3.78 3.204,-6.154c0,-1.899 -0.813,-3.849 -2.441,-5.849c-1.628,-2.001 -6.07,-5.578 -13.326,-10.732c-8.409,-5.968 -14.208,-11.088 -17.395,-15.361c-4.476,-5.968 -6.714,-12.275 -6.714,-18.921c0,-9.291 3.51,-16.852 10.529,-22.684c7.019,-5.833 15.309,-8.749 24.871,-8.749c6.714,0 13.089,1.594 19.125,4.781c6.035,3.188 11.054,7.698 15.055,13.53Z" style="fill:#ffa832;fill-rule:nonzero;"/><path d="M951.242,46.836l27.002,-0l-5.589,41.097l17.192,-0l-3.255,23.396l-17.117,0l-11.867,87.281l-27.103,-0l11.925,-87.281l-13.326,0l3.154,-23.396l13.369,-0l5.615,-41.097Z" style="fill:#ffa832;fill-rule:nonzero;"/><path d="M25.394,2.951l0.403,-2.951l74.86,0c21.188,0 36.136,1.847 44.846,5.542c10.773,4.595 18.943,10.993 24.51,19.192c5.567,8.2 8.35,17.796 8.35,28.789c0,12.074 -3.259,23 -9.778,32.776c-6.518,9.777 -15.262,16.895 -26.232,21.356c-10.97,4.46 -29.222,6.87 -54.758,7.231l-11.537,83.934l-70.678,-0l64.023,-4.812l-69.403,-5.216l0.288,-2.106l69.115,-5.195l-67.71,-5.088l0.323,-2.364l67.387,-5.064l-66.017,-4.962l0.358,-2.62l65.659,-4.935l-64.324,-4.834l0.393,-2.878l63.931,-4.804l-62.631,-4.707l0.428,-3.135l62.203,-4.675l-60.938,-4.58l0.463,-3.392l60.475,-4.545l-59.246,-4.452l0.499,-3.649l58.747,-4.415l-57.553,-4.326l0.534,-3.906l57.019,-4.285l-55.86,-4.198l0.569,-4.163l55.291,-4.156l-54.167,-4.071l0.604,-4.42l53.563,-4.025l-52.474,-3.944l0.639,-4.678l51.835,-3.895l-50.781,-3.816l0.674,-4.935l50.107,-3.766l-49.088,-3.689l0.709,-5.192l48.379,-3.635l-47.395,-3.562l0.744,-5.449l46.651,-3.506l-45.702,-3.435l0.779,-5.706l44.923,-3.376l-44.009,-3.307Zm66.759,76.793c20.243,-0.09 33.454,-2.207 39.635,-6.352c6.181,-4.145 9.271,-10.318 9.271,-18.517c0,-4.596 -1.205,-8.47 -3.615,-11.624c-2.411,-3.154 -5.981,-5.361 -10.712,-6.623c-4.73,-1.261 -14.103,-1.892 -28.117,-1.892l-6.462,45.008Z" style="fill:#ffa832;fill-rule:nonzero;"/></g></svg>